PathFileType	4	(X/Y/Z)	3_coords_data.trc
DataRate	CameraRate	NumFrames	NumMarkers	Units	OrigDataRate	OrigDataStartFrame	OrigNumFrames
30.0	30.0	9	21	m	30.0	11	64
Frame#	Time	THUMB_TIP	THUMB_IP	THUMB_MCP	THUMB_CMC	INDEX_TIP	INDEX_DIP	INDEX_PIP	INDEX_MCP	MIDDLE_TIP	MIDDLE_DIP	MIDDLE_PIP	MIDDLE_MCP	RING_TIP	RING_DIP	RING_PIP	RING_MCP	PINKY_TIP	PINKY_DIP	PINKY_PIP	PINKY_MCP	WRIST
X1	Y1	Z1	X2	Y2	Z2	X3	Y3	Z3	X4	Y4	Z4	X5	Y5	Z5	X6	Y6	Z6	X7	Y7	Z7	X8	Y8	Z8	X9	Y9	Z9	X10	Y10	Z10	X11	Y11	Z11	X12	Y12	Z12	X13	Y13	Z13	X14	Y14	Z14	X15	Y15	Z15	X16	Y16	Z16	X17	Y17	Z17	X18	Y18	Z18	X19	Y19	Z19	X20	Y20	Z20	X21	Y21	Z21
10	0.3333333333333333	-0.15390800476074218	-0.07345099639892579	0.8979730224609375	-0.16061799621582032	-0.06349300003051758	0.924197021484375	-0.1662220001220703	-0.0584833984375	0.955041015625	-0.16812699890136718	-0.03742660140991211	0.9859639892578125	-0.15250900268554687	-0.037447101593017576	0.9601840209960938	-0.13858700561523438	-0.03151320075988769	0.9466489868164063	-0.1418280029296875	-0.028958499908447264	0.9236849975585938	-0.1820639953613281	-0.03612039947509765	0.9299110107421875	-0.1559239959716797	-0.023959999084472657	0.968802001953125	-0.14358700561523438	-0.015904199600219725	0.9575239868164063	-0.143572998046875	-0.008120599746704102	0.9306929931640625	-0.1860330047607422	-0.01366569995880127	0.9310490112304688	-0.16282499694824218	-0.011630599975585937	0.9758820190429688	-0.15056300354003907	-0.0022791800498962404	0.9666890258789063	-0.1492519989013672	0.0094583101272583	0.9430989990234375	-0.18932899475097656	0.005243179798126221	0.94127099609375	-0.16658099365234375	4.724229872226701e-05	0.9780819702148438	-0.15459800720214845	0.011431400299072265	0.9704509887695313	-0.15793600463867188	0.02254669952392578	0.9547849731445313	-0.18979499816894532	0.0211564998626709	0.9534329833984375	-0.1879709930419922	-0.016964700698852538	1.0115999755859375
11	0.36666666666666664	-0.15386900329589845	-0.07310420227050782	0.898281982421875	-0.1604360046386719	-0.06337630081176758	0.9242000122070313	-0.16612199401855468	-0.05840660095214844	0.9550570068359375	-0.1655299987792969	-0.03725080108642578	0.9861220092773437	-0.15240400695800782	-0.03744079971313476	0.9601160278320312	-0.13817599487304688	-0.03154960060119629	0.9466530151367187	-0.14161599731445312	-0.029177900314331054	0.924156982421875	-0.18158200073242187	-0.03610800170898437	0.9299810180664062	-0.15570199584960936	-0.022996000289916992	0.9681069946289063	-0.14319099426269533	-0.015981599807739257	0.9577570190429687	-0.14338800048828124	-0.008092820167541504	0.9308090209960938	-0.18586599731445314	-0.01362880039215088	0.9310780029296875	-0.16306900024414062	-0.01221679973602295	0.9762260131835937	-0.14958200073242187	-0.00231643009185791	0.9666519775390625	-0.14924800109863282	0.009385769844055175	0.9430419921875	-0.18924800109863282	0.0052690601348876955	0.9412529907226562	-0.16656700134277344	-5.7999599725008e-05	0.9781209716796875	-0.15505499267578124	0.01129319953918457	0.97056201171875	-0.1580070037841797	0.022681800842285157	0.9548909912109375	-0.18970799255371093	0.021153600692749023	0.95343798828125	-0.18725999450683595	-0.01684819984436035	1.0115900268554687
12	0.4	-0.15355999755859376	-0.07294309997558594	0.8980960083007813	-0.16025999450683595	-0.06326950073242188	0.9242329711914062	-0.1659969940185547	-0.058439701080322266	0.95518798828125	-0.16904200744628906	-0.03740689849853516	0.9861680297851563	-0.15220799255371092	-0.03740069961547852	0.96060302734375	-0.13831300354003906	-0.03160619926452637	0.9467930297851562	-0.14175	-0.029056699752807617	0.9239030151367188	-0.1816649932861328	-0.036127498626708984	0.930052001953125	-0.15512399291992188	-0.023182899475097656	0.9686640014648438	-0.14303999328613282	-0.016240100860595703	0.9580059814453125	-0.14348800659179686	-0.008199170112609863	0.9308159790039062	-0.18582699584960938	-0.01371030044555664	0.9311099853515625	-0.16322799682617187	-0.011901900291442872	0.9763189697265625	-0.15058099365234376	-0.002291100025177002	0.9668140258789063	-0.14920100402832032	0.009330739974975586	0.942969970703125	-0.18926100158691406	0.005211339950561523	0.9413619995117187	-0.16618800354003907	-0.00014061699807643802	0.9782249755859375	-0.1548179931640625	0.011158300399780273	0.9705059814453125	-0.15796800231933594	0.02258340072631836	0.9548729858398437	-0.18983099365234374	0.021092100143432616	0.9535570068359375	-0.1875290069580078	-0.01677799987792969	1.0116300048828124
13	0.43333333333333335	-0.15345599365234375	-0.07263670349121094	0.8980679931640625	-0.16010699462890626	-0.06296419906616212	0.924447021484375	-0.16600300598144532	-0.0584453010559082	0.9552080078125	-0.16783299255371092	-0.03766189956665039	0.9861680297851563	-0.15174400329589843	-0.037478801727294925	0.9605960083007813	-0.13839100646972657	-0.031904100418090824	0.9471849975585938	-0.1418000030517578	-0.029177099227905273	0.9240449829101562	-0.18126600646972657	-0.03611439895629883	0.929885009765625	-0.1561739959716797	-0.02422990036010742	0.9696320190429687	-0.14301100158691407	-0.01620739936828613	0.9579860229492188	-0.14347300720214845	-0.00829319953918457	0.931031982421875	-0.18597599792480468	-0.013735199928283691	0.931197021484375	-0.16353700256347656	-0.011804800033569336	0.9761619873046875	-0.15040499877929686	-0.0023481600284576414	0.966593994140625	-0.14931100463867186	0.009339170455932617	0.9428400268554687	-0.18928399658203124	0.005162089824676514	0.941458984375	-0.16516099548339844	0.000137762993574142	0.9791510009765625	-0.15473800659179687	0.011296600341796874	0.9705180053710938	-0.15803500366210937	0.022583900451660158	0.9549630126953125	-0.18979800415039064	0.02105529975891113	0.9535599975585938	-0.1874929962158203	-0.016961299896240234	1.0116799926757813
14	0.4666666666666667	-0.1534320068359375	-0.07252230072021484	0.8982630004882812	-0.1601629943847656	-0.06307600021362304	0.9242739868164063	-0.16600599670410157	-0.058470500946044925	0.9552899780273437	-0.16541499328613282	-0.03756880187988281	0.9862319946289062	-0.15200199890136717	-0.03738040161132813	0.9604099731445312	-0.13839900207519532	-0.03179269981384277	0.9470280151367187	-0.14173300170898437	-0.02924570083618164	0.924135009765625	-0.181406005859375	-0.036267299652099606	0.9300830078125	-0.15520100402832032	-0.023779899597167968	0.9688660278320312	-0.1428789978027344	-0.016166200637817384	0.9578070068359374	-0.14338099670410157	-0.008368249893188476	0.9310700073242187	-0.18591799926757813	-0.01378890037536621	0.9312100219726562	-0.16311000061035155	-0.012159299850463868	0.9764110107421875	-0.150093994140625	-0.002473659992218017	0.9666859741210938	-0.14923199462890624	0.009284000396728515	0.9431099853515625	-0.18933099365234374	0.005134890079498291	0.94139501953125	-0.16658200073242188	-8.21029022336e-05	0.9782949829101563	-0.1547100067138672	0.01122130012512207	0.970593017578125	-0.1580800018310547	0.022451900482177736	0.95489697265625	-0.18978700256347655	0.021045000076293945	0.9535150146484375	-0.18874899291992187	-0.016924299240112305	1.0121400146484374
15	0.5	-0.153427001953125	-0.07261900329589843	0.8980910034179688	-0.16020899963378907	-0.06311600112915039	0.9243729858398437	-0.16585899353027345	-0.058538898468017575	0.9551680297851562	-0.1673699951171875	-0.037345001220703125	0.9866119995117187	-0.15152699279785156	-0.03740459823608398	0.9604639892578125	-0.13823599243164061	-0.031763700485229494	0.9468099975585937	-0.1416540069580078	-0.02947719955444336	0.9242260131835938	-0.18211300659179688	-0.03635260009765625	0.9301170043945313	-0.15473100280761717	-0.023840400695800783	0.9689140014648437	-0.1428719940185547	-0.016319499969482423	0.9578469848632812	-0.1433699951171875	-0.00860066032409668	0.930969970703125	-0.18595700073242188	-0.013875499725341797	0.931198974609375	-0.1629250030517578	-0.012000399589538574	0.9765089721679687	-0.14970500183105467	-0.0026891500949859618	0.9666099853515625	-0.14891799926757812	0.009075119972229003	0.9430560302734375	-0.18933900451660157	0.005114500045776367	0.9413480224609375	-0.16670599365234376	-0.000273301005363464	0.9782490234375	-0.15454100036621093	0.011082500457763671	0.970551025390625	-0.15816900634765624	0.022415199279785157	0.9550159912109375	-0.18976699829101562	0.020988399505615235	0.9534439697265625	-0.187427001953125	-0.016934099197387694	1.01177001953125
16	0.5333333333333333	-0.15337800598144533	-0.07270839691162109	0.8981710205078125	-0.16014100646972657	-0.06323989868164062	0.92443701171875	-0.16602499389648437	-0.05857229995727539	0.9552940063476563	-0.16518699645996093	-0.037447898864746094	0.986447998046875	-0.15219000244140626	-0.03753110122680664	0.9603250122070313	-0.13819200134277343	-0.03194790077209473	0.946947021484375	-0.14165699768066406	-0.029620399475097658	0.9243159790039063	-0.18168600463867188	-0.03646070098876953	0.9302249755859375	-0.15661700439453125	-0.024411199569702148	0.9695869750976562	-0.14291099548339845	-0.01646699905395508	0.9580399780273438	-0.14327200317382813	-0.0084610595703125	0.9308300170898437	-0.18595399475097657	-0.013980500221252442	0.931219970703125	-0.16324099731445313	-0.011996800422668458	0.9762860107421875	-0.14997900390625	-0.002619230031967163	0.9667750244140625	-0.1492570037841797	0.009137909889221191	0.9431129760742187	-0.1892239990234375	0.004987659931182861	0.941375	-0.16661399841308594	-0.00025761601328849705	0.9782000122070312	-0.15446600341796876	0.010917699813842774	0.9704929809570313	-0.15788400268554686	0.022237899780273438	0.9548880004882813	-0.1897760009765625	0.02086650085449219	0.9534310302734375	-0.18751499938964844	-0.017057600021362303	1.0117899780273438
17	0.5666666666666667	-0.15324800109863282	-0.07274970245361329	0.8984619750976562	-0.16011900329589843	-0.06323389816284179	0.9244979858398438	-0.1666929931640625	-0.058396900177001956	0.9554329833984375	-0.164927001953125	-0.0377056999206543	0.9864920043945312	-0.15233500671386718	-0.03760549926757813	0.9603839721679688	-0.13823899841308593	-0.031937999725341795	0.9470180053710937	-0.1417949981689453	-0.02956439971923828	0.924343994140625	-0.18174800109863282	-0.03656829833984375	0.930260986328125	-0.15605499267578124	-0.024413700103759765	0.9694219970703125	-0.14289100646972655	-0.016486000061035157	0.95802099609375	-0.14328500366210936	-0.008632049560546876	0.930916015625	-0.185968994140625	-0.01403849983215332	0.9312529907226562	-0.16324099731445313	-0.012113699913024903	0.9763359985351563	-0.14970700073242188	-0.002740040063858032	0.9666519775390625	-0.14924699401855468	0.009083959579467773	0.9430590209960937	-0.18919400024414063	0.004940810203552246	0.94139501953125	-0.1665919952392578	-0.00028597798943519505	0.9781909790039063	-0.15451800537109375	0.011070799827575684	0.9705050048828125	-0.1579709930419922	0.022296100616455077	0.9550070190429687	-0.18984500122070314	0.020787799835205078	0.9535059814453125	-0.18772599792480468	-0.0169237003326416	1.0120900268554687
18	0.6	-0.15347200012207032	-0.07273930358886718	0.8985059814453125	-0.16010899353027344	-0.06312469863891601	0.92472900390625	-0.16597500610351562	-0.05862680053710938	0.9554349975585937	-0.16675399780273437	-0.037553699493408206	0.98581298828125	-0.1517830047607422	-0.037596500396728516	0.9606090087890625	-0.13839199829101562	-0.0319424991607666	0.9469829711914063	-0.1417949981689453	-0.0294596004486084	0.9241069946289062	-0.18203999328613282	-0.03649810028076172	0.9302470092773437	-0.15592900085449218	-0.024221200942993164	0.9695689697265625	-0.14342999267578124	-0.016316799163818358	0.9579169921875	-0.14328799438476564	-0.00852377986907959	0.9308889770507812	-0.18589599609375	-0.01398840045928955	0.9312899780273437	-0.16316700744628906	-0.01201609992980957	0.9763800048828125	-0.15054499816894532	-0.002443490028381347	0.9669730224609375	-0.14928500366210937	0.009122170448303223	0.9429450073242187	-0.18919700622558594	0.004961999893188477	0.9414619750976563	-0.16644099426269532	-0.00026156300306320104	0.9783489990234375	-0.1546280059814453	0.011007599830627442	0.9705850219726563	-0.15818299865722657	0.022251699447631838	0.9549149780273437	-0.18973599243164063	0.020874399185180664	0.9535130004882812	-0.18764500427246095	-0.017066699981689453	1.0115700073242186
